<svg id="Layer_1" data-name="Layer 1" xmlns="http://www.w3.org/2000/svg" viewBox="0 0 372.84 148.45"><defs><style>.cls-1{fill:#fff;}</style></defs><path class="cls-1" d="M39.2,88.56,16.67,75.65c46.45-17.15,92.18-28.44,142.06-22.5-5.14-3.18-9.74-3.93-14.2-4.77-26.63-5.06-53.38-5.05-80.19-1.51-3.5.47-4.91,2.26-5.3,5.44-.23,1.88,0,3.91-2.08,6.06-3.47-4.45-6.93-8.61-10.07-13-1.78-2.49.38-2.87,2.26-3.15,6.81-1,13.61-2.13,20.45-2.89,3.19-.35,3.77-1.58,3.05-4.48-1.19-4.79-2-9.67-3.05-14.51-1.26-6-1-6.36,5-6.58a148.09,148.09,0,0,1,67,13.38,210.72,210.72,0,0,1,49,31.22c3.15,2.65,4.93,2.29,7.94-.15,26-21.13,54.35-37.54,88.06-42.83a155,155,0,0,1,29.6-1.59c3.36.12,4.37,1.44,3.66,4.63-1.23,5.51-2.12,11.11-3.5,16.58-.8,3.16.22,4,3.21,4.3,6.84.77,13.63,2,20.46,2.87,3.09.39,3.82,1.31,1.73,3.86C338.55,50,335.41,54,332.35,57.8c-1.44-.43-1.88-1.31-1.85-2.13.17-6.75-3.56-9-9.78-9.51-27.93-2.54-55.74-3-83.21,3.9a23.05,23.05,0,0,0-6,2.4c11.79-.74,23.53-1.16,35.31-.81a249.67,249.67,0,0,1,35.25,4,329.11,329.11,0,0,1,35,8.28A341.42,341.42,0,0,1,372,75.72L349.3,89c-.16-3.88,1.57-6.39,2.74-8.92,1.37-3,.73-4.31-2.37-5.42a252.84,252.84,0,0,0-63-13.81c-28.51-2.6-56.85-1.37-84.8,5.17a31.61,31.61,0,0,1-14.51.09c-49.26-10.7-97.87-8.4-145.77,7.75-4.83,1.63-6.41,3.48-3.75,8.13A8.79,8.79,0,0,1,39.2,88.56ZM242.94,42.79c7.26-1.25,14.45-2.94,21.8-3.75A280.07,280.07,0,0,1,306,37.29c3.88.15,5.36-.67,4.42-5.08-2-9.62-1.79-9.68-11.88-8.73l-.53.05C278.36,26.15,259.92,32.26,242.94,42.79Zm-96.66.55c-.15-1.42-1.09-1.62-1.8-2A142.53,142.53,0,0,0,90.13,23.51c-9.83-1.17-9.71-.94-11.59,9-.67,3.56.14,4.86,3.79,4.77C103.84,36.79,125.23,37.67,146.28,43.34Z" transform="translate(-8.08 -13.65)"/><path class="cls-1" d="M380.92,108.33C354,101.68,327.29,96,300.39,90.94c-20.83-3.89-41.76-7.11-62.74-10.06-5.32-.75-9.06,1-12.32,5.28-7.82,10.25-17.5,17.35-31.22,17.17-12.33-.16-21.79-6-28.82-15.41-4.69-6.28-9.76-7.61-17.31-6.57A1160.35,1160.35,0,0,0,23.17,105.23c-4.9,1.23-9.78,2.55-15.09,2.65,11-4.57,21.9-9.39,33-13.65A426.58,426.58,0,0,1,140.58,69.4c8.41-1.07,16.88-1.57,25.3-2.56,4.21-.5,6.62.66,7.45,5.12a26.75,26.75,0,0,0,5.6,11.31c9.07,11.66,24.41,10.91,32.46-1.62,2-3.13,3.87-6.43,4.52-10.11.72-4,2.9-5,6.68-4.72a468.27,468.27,0,0,1,71.17,10.71,455.17,455.17,0,0,1,84.95,29.56C379.48,107.44,380.18,107.91,380.92,108.33Z" transform="translate(-8.08 -13.65)"/><path class="cls-1" d="M12.33,119.84h16.6a48.57,48.57,0,0,1,7.35.41A10.86,10.86,0,0,1,40.61,122a10.57,10.57,0,0,1,3.19,3.47,9.38,9.38,0,0,1,1.27,4.86,9.65,9.65,0,0,1-1.57,5.35,9.77,9.77,0,0,1-4.26,3.65,11,11,0,0,1,5.83,3.77,10,10,0,0,1,2,6.26,12.3,12.3,0,0,1-1.32,5.51,11,11,0,0,1-3.59,4.28,11.92,11.92,0,0,1-5.63,2q-2.09.22-10.11.28H12.33Zm8.38,6.92v9.6h5.5q4.89,0,6.09-.14a5.55,5.55,0,0,0,3.38-1.49,4.38,4.38,0,0,0,1.23-3.24,4.53,4.53,0,0,0-1.06-3.13,4.78,4.78,0,0,0-3.16-1.46c-.83-.1-3.22-.14-7.16-.14Zm0,16.51v11.1h7.76a38.18,38.18,0,0,0,5.75-.25,5.23,5.23,0,0,0,3.05-1.66,5.11,5.11,0,0,0,1.17-3.52,5.46,5.46,0,0,0-.9-3.18,5.1,5.1,0,0,0-2.62-1.89q-1.72-.6-7.44-.6Z" transform="translate(-8.08 -13.65)"/><path class="cls-1" d="M52.49,140.86a26.49,26.49,0,0,1,1.9-10.65,19.58,19.58,0,0,1,3.87-5.69,16.07,16.07,0,0,1,5.37-3.74,22.68,22.68,0,0,1,8.95-1.64q9.18,0,14.69,5.69t5.5,15.83q0,10.07-5.46,15.74t-14.62,5.68q-9.26,0-14.73-5.65T52.49,140.86Zm8.64-.28q0,7,3.26,10.69a11.2,11.2,0,0,0,16.5,0q3.21-3.62,3.22-10.83T81,129.81a10.61,10.61,0,0,0-8.32-3.51,10.65,10.65,0,0,0-8.35,3.56Q61.13,133.41,61.13,140.58Z" transform="translate(-8.08 -13.65)"/><path class="cls-1" d="M97.62,140.86a26.32,26.32,0,0,1,1.9-10.65,19.55,19.55,0,0,1,3.86-5.69,16.28,16.28,0,0,1,5.37-3.74,22.72,22.72,0,0,1,9-1.64q9.18,0,14.69,5.69t5.51,15.83q0,10.07-5.47,15.74t-14.61,5.68q-9.27,0-14.73-5.65T97.62,140.86Zm8.64-.28q0,7,3.26,10.69a11.2,11.2,0,0,0,16.5,0q3.21-3.62,3.21-10.83t-3.13-10.66a11.59,11.59,0,0,0-16.67.05Q106.26,133.41,106.26,140.58Z" transform="translate(-8.08 -13.65)"/><path class="cls-1" d="M144.56,161.37V119.84h8.38v18.44l16.94-18.44h11.28L165.52,136,182,161.37H171.16l-11.42-19.49-6.8,6.94v12.55Z" transform="translate(-8.08 -13.65)"/><path class="cls-1" d="M184.21,147.86l8.16-.79a10,10,0,0,0,3,6,9.07,9.07,0,0,0,6.08,1.93c2.7,0,4.73-.58,6.1-1.72a5.1,5.1,0,0,0,2.06-4,3.75,3.75,0,0,0-.87-2.5,6.85,6.85,0,0,0-3-1.8c-1-.34-3.22-.95-6.71-1.81q-6.74-1.68-9.46-4.11a10.92,10.92,0,0,1-2-14.29,11.26,11.26,0,0,1,5.19-4.21,20.81,20.81,0,0,1,8.17-1.44q7.81,0,11.77,3.42a12.09,12.09,0,0,1,4.15,9.15l-8.38.37a7.12,7.12,0,0,0-2.31-4.6,8.42,8.42,0,0,0-5.31-1.4,9.61,9.61,0,0,0-5.73,1.5,3,3,0,0,0-1.33,2.57,3.2,3.2,0,0,0,1.25,2.53c1.06.88,3.62,1.81,7.7,2.77a40.34,40.34,0,0,1,9,3,11.64,11.64,0,0,1,4.59,4.22A13.07,13.07,0,0,1,216,156a11.84,11.84,0,0,1-5.61,4.63,23.54,23.54,0,0,1-9,1.52q-7.87,0-12.09-3.64T184.21,147.86Z" transform="translate(-8.08 -13.65)"/><path class="cls-1" d="M234.38,161.37v-34.5H222.06v-7h33v7H242.77v34.5Z" transform="translate(-8.08 -13.65)"/><path class="cls-1" d="M257.72,140.86a26.49,26.49,0,0,1,1.9-10.65,19.58,19.58,0,0,1,3.87-5.69,16.07,16.07,0,0,1,5.37-3.74,22.68,22.68,0,0,1,8.95-1.64q9.18,0,14.69,5.69t5.5,15.83q0,10.07-5.46,15.74t-14.62,5.68q-9.26,0-14.73-5.65T257.72,140.86Zm8.64-.28q0,7,3.26,10.69a11.2,11.2,0,0,0,16.5,0q3.21-3.62,3.22-10.83t-3.13-10.66a11.59,11.59,0,0,0-16.67.05Q266.36,133.41,266.36,140.58Z" transform="translate(-8.08 -13.65)"/><path class="cls-1" d="M304.58,161.37V119.84h17.64c4.44,0,7.67.38,9.68,1.12a9.56,9.56,0,0,1,4.83,4,12,12,0,0,1,1.81,6.55,11.07,11.07,0,0,1-2.75,7.71c-1.83,2-4.57,3.31-8.21,3.84a19.57,19.57,0,0,1,4.49,3.49,46.85,46.85,0,0,1,4.77,6.74l5.07,8.1h-10l-6.06-9a57.86,57.86,0,0,0-4.42-6.1,6.39,6.39,0,0,0-2.52-1.73,13.84,13.84,0,0,0-4.22-.47H313v17.34Zm8.38-24h6.21q6,0,7.53-.51a4.54,4.54,0,0,0,2.35-1.76,5.38,5.38,0,0,0,.85-3.12,5,5,0,0,0-1.12-3.38,5.14,5.14,0,0,0-3.16-1.63q-1-.14-6.12-.14H313Z" transform="translate(-8.08 -13.65)"/><path class="cls-1" d="M346.44,161.37V119.84h30.8v7H354.83v9.21h20.85v7H354.83v11.3H378v7Z" transform="translate(-8.08 -13.65)"/></svg>